<?xml version="1.0" encoding="UTF-8" standalone="no"?><!DOCTYPE svg PUBLIC "-//W3C//DTD SVG 1.1//EN" "http://www.w3.org/Graphics/SVG/1.1/DTD/svg11.dtd"><svg width="100%" height="100%" viewBox="0 0 1275 710" version="1.1" xmlns="http://www.w3.org/2000/svg" xmlns:xlink="http://www.w3.org/1999/xlink" xml:space="preserve" xmlns:serif="http://www.serif.com/" style="fill-rule:evenodd;clip-rule:evenodd;"><rect id="Artboard1" x="0" y="0" width="1274.28" height="710" style="fill:none;"/><clipPath id="_clip1"><rect x="0" y="0" width="1274.28" height="710"/></clipPath><g clip-path="url(#_clip1)"><g id="Layer_1"><path d="M97,52.35l0,48m0,-48l-47.724,-0m0,-0l0,48m0,-0l47.724,-0m-47.724,-0l0,48m0,-48l-47.724,-0m-0.552,-0l0,48m0.552,-0l47.724,-0m47.724,-0l0,48m0,-48l-47.724,-0m0,-0l0,48m0,0l47.724,0m-47.724,0l0,48m0,-48l-47.724,0m-0.552,0l0,48m0.552,0l47.724,0m47.172,0l-0,48m-0,-48l-47.724,0m-0,0l-0,48m-0,0l47.724,0m744.828,-240l-744.276,-0m744.276,144l-744.276,-0m744,97.997l-744.552,-1.997" style="fill-opacity:0;fill-rule:nonzero;stroke:#363636;stroke-width:1.56px;stroke-dasharray:4.68,4.68;"/><g><text x="0.978px" y="21.357px" style="font-family:'ArialMT', 'Arial';font-size:20.004px;fill:#363636;">Margin for paragraphs and headings:</text></g><g><text x="119.731px" y="160.071px" style="font-family:'ArialMT', 'Arial';font-size:119.07px;fill:#363636;">Lorem ipsum</text></g><path d="M865,52.35c17.974,-0 -5.75,72 24.276,72c-29.92,-0 -6.302,72 -24.276,72m0,0c17.974,0 -5.026,50.631 25,50.631c-29.92,0 -7.026,47.366 -25,47.366" style="fill-opacity:0;fill-rule:nonzero;stroke:#363636;stroke-width:2px;"/><path d="M145,371.35l0,240m-96,-240l0,240m889.224,-240l-889.224,0m888.276,192l-888.276,0m889.224,48l-889.224,0" style="fill-opacity:0;fill-rule:nonzero;stroke:#363636;stroke-width:1.56px;stroke-dasharray:4.68,4.68;"/><g><text x="0.982px" y="337.33px" style="font-family:'ArialMT', 'Arial';font-size:20.004px;fill:#363636;">Padding for buttons and table cells:</text></g><g><text x="144.955px" y="527.071px" style="font-family:'ArialMT', 'Arial';font-size:119.07px;fill:#363636;">Lorem ipsum</text></g><path d="M961,371.35c17.974,0 -5.75,24 24.276,24c-29.92,0 -6.302,24 -24.276,24m0,0c17.974,0 -5.75,72 24.276,72c-29.92,0 -6.302,72 -24.276,72" style="fill-opacity:0;fill-rule:nonzero;stroke:#363636;stroke-width:2px;"/><path d="M937.276,419.35l-888.276,0m889.224,-48l0,240m-97.224,-240l0,240" style="fill-opacity:0;fill-rule:nonzero;stroke:#363636;stroke-width:1.56px;stroke-dasharray:4.68,4.68;"/><path d="M961,563.35c17.974,0 -5.75,24 24.276,24c-29.92,0 -6.302,24 -24.276,24" style="fill-opacity:0;fill-rule:nonzero;stroke:#363636;stroke-width:2px;"/><g><text x="912.99px" y="117.359px" style="font-family:'ArialMT', 'Arial';font-size:20.004px;fill:#363636;">Default text line-height: 1.5rem</text></g><g><text x="912.983px" y="140.039px" style="font-family:'ArialMT', 'Arial';font-size:20.004px;fill:#363636;">= 3 element grid units</text></g><g><text x="912.993px" y="241.359px" style="font-family:'ArialMT', 'Arial';font-size:20.004px;fill:#363636;">margin-bottom: 1rem</text></g><g><text x="912.983px" y="264.039px" style="font-family:'ArialMT', 'Arial';font-size:20.004px;fill:#363636;">= 3 element grid units</text></g><g><text x="1008.98px" y="401.36px" style="font-family:'ArialMT', 'Arial';font-size:20.004px;fill:#363636;">0.5rem = 1 element grid unit</text></g><g><text x="1008.98px" y="593.185px" style="font-family:'ArialMT', 'Arial';font-size:20.004px;fill:#363636;">0.5rem = 1 element grid unit</text></g><g><text x="1008.98px" y="484.359px" style="font-family:'ArialMT', 'Arial';font-size:20.004px;fill:#363636;">1.5rem = 3 element grid units</text></g><g><text x="1008.99px" y="507.039px" style="font-family:'ArialMT', 'Arial';font-size:20.004px;fill:#363636;">(default text)</text></g><path d="M937,635.35c0,17.974 -48,-5.75 -48,24.276c0,-29.92 -48,-6.302 -48,-24.276" style="fill-opacity:0;fill-rule:nonzero;stroke:#363636;stroke-width:2px;"/><g><g><text x="866.212px" y="676.633px" style="font-family:'ArialMT', 'Arial';font-size:20.004px;fill:#363636;">1rem</text></g><g><text x="793.094px" y="699.313px" style="font-family:'ArialMT', 'Arial';font-size:20.004px;fill:#363636;">= 2 element grid units</text></g></g><path d="M145,635.35c0,17.974 -48,-5.75 -48,24.276c0,-29.92 -48,-6.302 -48,-24.276" style="fill-opacity:0;fill-rule:nonzero;stroke:#363636;stroke-width:2px;"/><g><g><text x="74.212px" y="676.633px" style="font-family:'ArialMT', 'Arial';font-size:20.004px;fill:#363636;">1rem</text></g><g><text x="1.094px" y="699.313px" style="font-family:'ArialMT', 'Arial';font-size:20.004px;fill:#363636;">= 2 element grid units</text></g></g></g></g></svg>