<?xml version="1.0" encoding="UTF-8"?>
<!DOCTYPE svg PUBLIC "-//W3C//DTD SVG 1.1//EN" "http://www.w3.org/Graphics/SVG/1.1/DTD/svg11.dtd">
<svg version="1.1" xmlns="http://www.w3.org/2000/svg" xmlns:xlink="http://www.w3.org/1999/xlink" x="0" y="0" width="1200" height="860" viewBox="0, 0, 1200, 860">
  <g id="Layer_1">
    <path d="M25,73 L1177,73" fill-opacity="0" stroke="#000000" stroke-width="2" stroke-dasharray="12,10"/>
    <path d="M25,361 L1177,361" fill-opacity="0" stroke="#000000" stroke-width="2" stroke-dasharray="12,10"/>
    <path d="M25,73 L25,841" fill-opacity="0" stroke="#000000" stroke-width="2" stroke-dasharray="12,10"/>
    <path d="M313,73 L313,841" fill-opacity="0" stroke="#000000" stroke-width="2" stroke-dasharray="12,10"/>
    <path d="M361,73 L361,841" fill-opacity="0" stroke="#000000" stroke-width="2" stroke-dasharray="12,10"/>
    <path d="M25,409 L1177,409" fill-opacity="0" stroke="#000000" stroke-width="2" stroke-dasharray="12,10"/>
    <path d="M25,745 L1177,745" fill-opacity="0" stroke="#000000" stroke-width="2" stroke-dasharray="12,10"/>
    <path d="M25,697 L1177,697" fill-opacity="0" stroke="#000000" stroke-width="2" stroke-dasharray="12,10"/>
    <path d="M745,73 L745,841" fill-opacity="0" stroke="#000000" stroke-width="2" stroke-dasharray="12,10"/>
    <path d="M793,73 L793,841" fill-opacity="0" stroke="#000000" stroke-width="2" stroke-dasharray="12,10"/>
    <path d="M1033,73 L1033,841" fill-opacity="0" stroke="#000000" stroke-width="2" stroke-dasharray="12,10"/>
    <path d="M1081,73 L1081,841" fill-opacity="0" stroke="#000000" stroke-width="2" stroke-dasharray="12,10"/>
    <text transform="matrix(2, 0, 0, 2, 144.922, 40)">
      <tspan x="-59.961" y="3.5" font-family="Arial, sans-serif" font-size="12" fill="#000000">&lt;div class="grid gap"&gt;</tspan>
    </text>
    <path d="M37,85 L302.484,85 L302.484,349 L37,349 L37,85 z" fill-opacity="0" stroke="#000000" stroke-width="2"/>
    <text transform="matrix(2, 0, 0, 2, 150.566, 111)">
      <tspan x="-51.283" y="3.5" font-family="Arial, sans-serif" font-size="12" fill="#000000">&lt;div class="col-1"&gt;</tspan>
    </text>
    <path d="M373,85 L733,85 L733,685 L373,685 L373,85 z" fill-opacity="0" stroke="#000000" stroke-width="2"/>
    <text transform="matrix(2, 0, 0, 2, 523.945, 110)">
      <tspan x="-69.972" y="3" font-family="Arial, sans-serif" font-size="11" fill="#000000">&lt;div class="col-2 rows-1-2"&gt;</tspan>
    </text>
  </g>
</svg>
