<?xml version="1.0" standalone="no"?>
<!DOCTYPE svg PUBLIC "-//W3C//DTD SVG 20010904//EN"
 "http://www.w3.org/TR/2001/REC-SVG-20010904/DTD/svg10.dtd">
<svg version="1.0" xmlns="http://www.w3.org/2000/svg"
 width="1040.000000pt" height="1040.000000pt" viewBox="0 0 1040.000000 1040.000000"
 preserveAspectRatio="xMidYMid meet">
<metadata>
Created by potrace 1.14, written by Peter Selinger 2001-2017
</metadata>
<g transform="translate(0.000000,1040.000000) scale(0.100000,-0.100000)"
fill="#000000" stroke="none">
<path d="M1865 7069 c-401 -401 -968 -967 -1258 -1257 -290 -290 -546 -546
-568 -568 l-41 -42 1103 -1102 c607 -606 1115 -1110 1128 -1121 13 -10 22 -19
19 -19 -2 0 76 -80 174 -177 97 -97 180 -175 182 -172 3 2 95 92 205 199 111
107 201 198 201 202 0 3 -25 32 -56 65 -31 32 -70 75 -88 97 -17 21 -36 43
-41 50 -37 41 -95 115 -95 120 0 3 -7 14 -16 24 -29 32 -99 136 -160 237 -103
170 -164 299 -274 580 -10 25 -56 180 -66 220 -4 17 -8 35 -10 40 -10 32 -55
255 -59 289 -2 23 -7 52 -9 66 -16 83 -32 611 -19 633 3 4 6 36 8 70 4 63 10
116 18 152 3 11 8 43 11 70 4 28 12 70 17 95 6 25 12 53 14 64 27 130 96 346
159 501 44 106 158 339 169 343 4 2 7 10 7 18 0 8 5 14 10 14 6 0 10 9 10 20
0 11 4 20 9 20 5 0 14 14 21 30 7 17 16 30 20 30 4 0 12 11 18 25 7 14 30 50
52 80 22 30 38 55 35 55 -3 0 5 11 19 24 15 13 26 26 26 30 0 7 49 68 115 145
32 37 34 39 107 118 l47 51 -204 206 c-113 113 -206 206 -207 205 -2 0 -331
-329 -733 -730z"/>
<path d="M7702 7703 c-50 -49 -134 -131 -188 -184 -141 -137 -133 -121 -85
-175 23 -26 41 -51 41 -56 0 -6 6 -8 14 -5 10 4 12 0 9 -14 -3 -10 0 -19 6
-19 6 0 11 -6 11 -14 0 -8 4 -16 8 -18 16 -6 109 -218 96 -218 -4 0 -2 -6 3
-12 10 -12 13 -26 29 -123 9 -50 8 -230 -1 -270 -3 -16 -8 -39 -10 -50 -43
-217 -158 -397 -359 -562 -77 -64 -280 -150 -396 -169 -139 -22 -337 -6 -451
37 -30 11 -67 25 -84 32 -32 12 -147 76 -155 87 -3 4 -13 11 -22 16 -9 5 -57
47 -107 92 -88 82 -175 149 -236 184 -62 36 -192 96 -210 98 -3 0 -22 6 -42
14 -34 13 -82 27 -108 32 -5 1 -12 3 -15 4 -49 19 -301 30 -405 18 -110 -14
-282 -60 -340 -91 -11 -6 -22 -12 -25 -12 -15 -2 -122 -62 -184 -103 -137 -90
-321 -296 -399 -447 -53 -103 -113 -281 -123 -370 -11 -92 -15 -144 -16 -188
-1 -54 12 -218 18 -228 2 -3 6 -21 9 -40 8 -48 42 -160 62 -206 9 -21 17 -40
18 -43 0 -3 20 -42 44 -87 90 -166 227 -319 387 -429 143 -98 330 -172 509
-201 52 -8 341 -8 380 1 17 3 41 9 55 12 14 3 36 8 50 10 96 17 274 96 392
175 65 43 62 40 143 115 71 65 181 154 213 172 72 40 162 81 190 87 12 2 27 7
32 10 26 16 175 37 265 37 55 1 175 -11 185 -17 4 -2 22 -7 40 -10 121 -21
315 -130 425 -240 100 -98 161 -193 226 -350 71 -172 70 -440 -4 -636 -25 -67
-75 -170 -86 -179 -4 -3 -15 -18 -24 -33 -18 -27 -24 -36 -74 -95 l-22 -26
169 -171 c93 -93 185 -186 204 -207 l35 -36 1301 1301 1300 1300 -1296 1294
c-713 711 -1300 1293 -1305 1293 -4 0 -48 -39 -97 -87z"/>
</g>
</svg>
