<?xml version="1.0" encoding="UTF-8"?>
<!DOCTYPE svg PUBLIC "-//W3C//DTD SVG 1.1//EN" "http://www.w3.org/Graphics/SVG/1.1/DTD/svg11.dtd">
<svg version="1.1" xmlns="http://www.w3.org/2000/svg" xmlns:xlink="http://www.w3.org/1999/xlink" x="0" y="0" width="1538.686" height="890" viewBox="0, 0, 769.343, 445">
  <style>
    text {
      font-family: Arial, sans-serif;
    }
  </style>
  <path d="M1.5,60 L385.5,60 L385.5,444 L1.5,444 L1.5,60 z" fill="#363636" fill-opacity="0.1"/>
  <path d="M739.667,144.5 L739.667,359.5 L509,359.5 L509,144.5 L739.667,144.5 z" fill="#363636" fill-opacity="0.1"/>
  <path d="M733,145 L733,360 L517,360 L517,145 L733,145 z" fill="#363636" fill-opacity="0.1"/>
  <path d="M1,145 L385,145 L385,360 L1,360 L1,145 z" fill="#363636" fill-opacity="0.1"/>
  <path d="M1,144 L385,144 L385,360 L1,360 L1,144 z" fill-opacity="0" stroke="#363636" stroke-width="1" stroke-dasharray="3,3"/>
  <text transform="matrix(1, 0, 0, 1, 193.5, 44.5)">
    <tspan x="-135.84" y="4.5" font-size="14" fill="#363636">Your `img-cover` image on a large device</tspan>
  </text>
  <text transform="matrix(1, 0, 0, 1, 625.671, 128.5)">
    <tspan x="-136.609" y="4.5" font-size="14" fill="#363636">Your `img-cover` image on a small device</tspan>
  </text>
  <g>
    <path d="M406,351 L406,153" fill-opacity="0" stroke="#363636" stroke-width="1"/>
    <g>
      <path d="M403,351 L406,359 L409,351 z M409,153 L406,145 L403,153 z" fill="#363636"/>
      <path d="M403,351 L406,359 L409,351 z M409,153 L406,145 L403,153 z" fill-opacity="0" stroke="#363636" stroke-width="1"/>
    </g>
  </g>
  <g>
    <text transform="matrix(1, 0, 0, 1, 441.595, 236.5)">
      <tspan x="-23.595" y="4.5" font-size="14" fill="#363636">You set </tspan>
    </text>
    <text transform="matrix(1, 0, 0, 1, 450.41, 252.5)">
      <tspan x="-32.41" y="4.5" font-size="14" fill="#363636">this height </tspan>
    </text>
    <text transform="matrix(1, 0, 0, 1, 451.572, 268.5)">
      <tspan x="-33.572" y="4.5" font-size="14" fill="#363636">constraint*</tspan>
    </text>
  </g>
  <path d="M394,144 L502,144 M394,360 L502,360" fill-opacity="0" stroke="#363636" stroke-width="1" stroke-dasharray="3,3"/>
  <g>
    <text transform="matrix(1, 0, 0, 1, 557.613, 404.5)">
      <tspan x="-124.613" y="4.5" font-size="14" fill="#363636">* Best practice is to make this set height</tspan>
    </text>
    <text transform="matrix(1, 0, 0, 1, 570.041, 420.5)">
      <tspan x="-137.041" y="4.5" font-size="14" fill="#363636">responsive, or smaller for smaller viewports.</tspan>
    </text>
  </g>
  <text transform="matrix(1, 0, 0, 1, 625.671, 252.5)">
    <tspan x="-37.991" y="-11.5" font-size="14" fill="#363636">Visitors may</tspan>
    <tspan x="-36.183" y="4.5" font-size="14" fill="#363636">see most of</tspan>
    <tspan x="-36.572" y="20.5" font-size="14" fill="#363636"> your image</tspan>
  </text>
  <text transform="matrix(1, 0, 0, 1, 193, 252.5)">
    <tspan x="-37.991" y="-19.5" font-size="14" fill="#363636">Visitors may</tspan>
    <tspan x="-38.91" y="-3.5" font-size="14" fill="#363636">see only this </tspan>
    <tspan x="-44.352" y="12.5" font-size="14" fill="#363636">middle slice of </tspan>
    <tspan x="-34.627" y="28.5" font-size="14" fill="#363636">your image</tspan>
  </text>
  <path d="M516.333,144 L732.333,144 L732.333,360 L516.333,360 L516.333,144 z" fill-opacity="0" stroke="#363636" stroke-width="1" stroke-dasharray="3,3"/>
</svg>