<?xml version="1.0" encoding="UTF-8"?>
<!DOCTYPE svg PUBLIC "-//W3C//DTD SVG 1.1//EN" "http://www.w3.org/Graphics/SVG/1.1/DTD/svg11.dtd">
<svg version="1.1" xmlns="http://www.w3.org/2000/svg" xmlns:xlink="http://www.w3.org/1999/xlink" x="0" y="0" width="1200" height="860" viewBox="0, 0, 600, 430">
  <g id="Layer_1">
    <path d="M12.5,36.5 L588.5,36.5" fill-opacity="0" stroke="#000000" stroke-width="1" stroke-dasharray="6,5"/>
    <path d="M12.5,180.5 L588.5,180.5" fill-opacity="0" stroke="#000000" stroke-width="1" stroke-dasharray="6,5"/>
    <path d="M12.5,36.5 L12.5,420.5" fill-opacity="0" stroke="#000000" stroke-width="1" stroke-dasharray="6,5"/>
    <path d="M156.5,36.5 L156.5,420.5" fill-opacity="0" stroke="#000000" stroke-width="1" stroke-dasharray="6,5"/>
    <path d="M180.5,36.5 L180.5,420.5" fill-opacity="0" stroke="#000000" stroke-width="1" stroke-dasharray="6,5"/>
    <path d="M12.5,204.5 L588.5,204.5" fill-opacity="0" stroke="#000000" stroke-width="1" stroke-dasharray="6,5"/>
    <path d="M12.5,372.5 L588.5,372.5" fill-opacity="0" stroke="#000000" stroke-width="1" stroke-dasharray="6,5"/>
    <path d="M12.5,348.5 L588.5,348.5" fill-opacity="0" stroke="#000000" stroke-width="1" stroke-dasharray="6,5"/>
    <path d="M372.5,36.5 L372.5,420.5" fill-opacity="0" stroke="#000000" stroke-width="1" stroke-dasharray="6,5"/>
    <path d="M396.5,36.5 L396.5,420.5" fill-opacity="0" stroke="#000000" stroke-width="1" stroke-dasharray="6,5"/>
    <path d="M516.5,36.5 L516.5,420.5" fill-opacity="0" stroke="#000000" stroke-width="1" stroke-dasharray="6,5"/>
    <path d="M540.5,36.5 L540.5,420.5" fill-opacity="0" stroke="#000000" stroke-width="1" stroke-dasharray="6,5"/>
    <text transform="matrix(1, 0, 0, 1, 81.371, 20.5)">
      <tspan x="-69.371" y="2.5" font-family="ArialMT" font-size="12" fill="#000000">&lt;div class="grid gap"&gt;</tspan>
    </text>
    <path d="M18.5,42.5 L151.242,42.5 L151.242,174.5 L18.5,174.5 L18.5,42.5 z" fill-opacity="0" stroke="#000000" stroke-width="1"/>
    <text transform="matrix(1, 0, 0, 1, 84, 55.5)">
      <tspan x="-60" y="3.5" font-family="ArialMT" font-size="12" fill="#000000">&lt;div class="col-1"&gt;</tspan>
    </text>
    <path d="M186.5,42.5 L366.5,42.5 L366.5,342.5 L186.5,342.5 L186.5,42.5 z" fill-opacity="0" stroke="#000000" stroke-width="1"/>
    <text transform="matrix(1, 0, 0, 1, 276, 64.5)">
      <tspan x="-84" y="-6.5" font-family="ArialMT" font-size="11" fill="#000000">&lt;div class="col-2 rows-1-2"&gt;</tspan>
    </text>
  </g>
</svg>
