<?xml version="1.0" encoding="UTF-8"?>
<!DOCTYPE svg PUBLIC "-//W3C//DTD SVG 1.1//EN" "http://www.w3.org/Graphics/SVG/1.1/DTD/svg11.dtd">
<svg version="1.1" xmlns="http://www.w3.org/2000/svg" xmlns:xlink="http://www.w3.org/1999/xlink" x="0" y="0" width="1000" height="1000" viewBox="0, 0, 1000, 1000">
  <g id="Layer_1">
    <path d="M-0,-0.001 L1000,-0.001 L1000,1000.002 L-0,1000.002 z" fill="#FFFFFF"/>
    <path d="M738.991,260.12 L979.112,499.76 L738.991,739.881 L701.126,701.442 L711.42,691.27 C715.347,685.323 716.406,684.173 719.514,677.483 C731.324,652.063 729.847,621.575 715.572,597.443 C711.842,591.137 707.297,585.593 702.268,580.303 C668.631,546.666 614.093,546.666 580.455,580.306 C535.964,624.794 463.832,624.794 419.341,580.306 C374.853,535.815 374.853,463.683 419.341,419.193 C463.832,374.705 535.964,374.705 580.455,419.193 C614.093,452.833 668.631,452.833 702.268,419.195 C727.438,393.769 734.641,354.576 719.514,322.015 C716.408,315.329 715.353,314.184 711.429,308.244 L700.562,297.505 L738.991,260.12 z" fill="#000000"/>
    <path d="M260.122,260.119 L297.939,298.249 L298.569,297.627 L297.951,298.261 L297.987,298.298 L296.056,300.205 C188.093,410.267 187.917,588.88 295.539,699.265 L298.569,702.256 L298.51,702.313 L298.569,702.373 L298.509,702.314 L260.122,739.881 L20.001,500.24 L20.241,500 L20.001,499.76 L56.703,463.058 L260.122,260.119 z" fill="#000000"/>
  </g>
</svg>
